<?xml version="1.0" encoding="UTF-8"?>
<svg xmlns="http://www.w3.org/2000/svg" viewBox="0 0 47 47" shape-rendering="crispEdges" role="img" aria-label="QR code vers l’animation Travail et puissance">
  <rect width="47" height="47" fill="#fff"/>
  <path d="M5 5h7v1h-7zM13 5h2v1h-2zM16 5h1v1h-1zM18 5h4v1h-4zM25 5h3v1h-3zM30 5h1v1h-1zM32 5h2v1h-2zM40 5h2v1h-2zM5 6h1v1h-1zM11 6h1v1h-1zM16 6h1v1h-1zM18 6h2v1h-2zM21 6h1v1h-1zM24 6h3v1h-3zM30 6h1v1h-1zM32 6h3v1h-3zM36 6h2v1h-2zM40 6h1v1h-1zM5 7h1v1h-1zM7 7h3v1h-3zM11 7h1v1h-1zM13 7h1v1h-1zM15 7h4v1h-4zM20 7h2v1h-2zM25 7h3v1h-3zM29 7h1v1h-1zM31 7h1v1h-1zM37 7h3v1h-3zM41 7h1v1h-1zM5 8h1v1h-1zM7 8h3v1h-3zM11 8h1v1h-1zM14 8h2v1h-2zM18 8h6v1h-6zM25 8h3v1h-3zM29 8h1v1h-1zM36 8h3v1h-3zM40 8h2v1h-2zM5 9h1v1h-1zM7 9h3v1h-3zM11 9h1v1h-1zM13 9h2v1h-2zM19 9h3v1h-3zM23 9h4v1h-4zM29 9h2v1h-2zM33 9h6v1h-6zM41 9h1v1h-1zM5 10h1v1h-1zM11 10h1v1h-1zM14 10h1v1h-1zM17 10h2v1h-2zM21 10h3v1h-3zM25 10h2v1h-2zM28 10h4v1h-4zM33 10h1v1h-1zM37 10h2v1h-2zM40 10h1v1h-1zM5 11h7v1h-7zM15 11h2v1h-2zM18 11h4v1h-4zM23 11h1v1h-1zM25 11h1v1h-1zM27 11h1v1h-1zM32 11h2v1h-2zM35 11h1v1h-1zM37 11h2v1h-2zM40 11h2v1h-2zM13 12h1v1h-1zM15 12h1v1h-1zM17 12h1v1h-1zM20 12h1v1h-1zM22 12h2v1h-2zM25 12h1v1h-1zM29 12h2v1h-2zM32 12h2v1h-2zM37 12h2v1h-2zM41 12h1v1h-1zM5 13h1v1h-1zM7 13h5v1h-5zM16 13h1v1h-1zM18 13h1v1h-1zM22 13h5v1h-5zM29 13h2v1h-2zM33 13h5v1h-5zM41 13h1v1h-1zM6 14h1v1h-1zM8 14h3v1h-3zM12 14h3v1h-3zM16 14h3v1h-3zM20 14h1v1h-1zM23 14h6v1h-6zM30 14h1v1h-1zM32 14h1v1h-1zM34 14h2v1h-2zM37 14h1v1h-1zM40 14h1v1h-1zM5 15h1v1h-1zM7 15h2v1h-2zM11 15h1v1h-1zM13 15h3v1h-3zM17 15h1v1h-1zM19 15h1v1h-1zM22 15h2v1h-2zM34 15h1v1h-1zM38 15h1v1h-1zM40 15h2v1h-2zM6 16h1v1h-1zM8 16h3v1h-3zM14 16h1v1h-1zM17 16h4v1h-4zM22 16h1v1h-1zM25 16h2v1h-2zM29 16h2v1h-2zM33 16h1v1h-1zM35 16h1v1h-1zM38 16h1v1h-1zM40 16h2v1h-2zM5 17h2v1h-2zM10 17h3v1h-3zM14 17h1v1h-1zM16 17h1v1h-1zM19 17h1v1h-1zM24 17h3v1h-3zM30 17h1v1h-1zM34 17h2v1h-2zM38 17h1v1h-1zM41 17h1v1h-1zM5 18h1v1h-1zM8 18h3v1h-3zM15 18h2v1h-2zM20 18h1v1h-1zM24 18h1v1h-1zM26 18h1v1h-1zM30 18h2v1h-2zM34 18h1v1h-1zM37 18h1v1h-1zM40 18h1v1h-1zM6 19h3v1h-3zM11 19h2v1h-2zM15 19h4v1h-4zM20 19h3v1h-3zM26 19h1v1h-1zM29 19h2v1h-2zM34 19h3v1h-3zM39 19h3v1h-3zM5 20h1v1h-1zM13 20h1v1h-1zM16 20h3v1h-3zM20 20h2v1h-2zM23 20h1v1h-1zM25 20h1v1h-1zM27 20h1v1h-1zM30 20h2v1h-2zM33 20h4v1h-4zM38 20h1v1h-1zM41 20h1v1h-1zM5 21h1v1h-1zM7 21h1v1h-1zM11 21h2v1h-2zM16 21h2v1h-2zM19 21h4v1h-4zM24 21h3v1h-3zM29 21h2v1h-2zM34 21h2v1h-2zM38 21h1v1h-1zM5 22h1v1h-1zM10 22h1v1h-1zM13 22h1v1h-1zM16 22h3v1h-3zM21 22h1v1h-1zM23 22h4v1h-4zM28 22h1v1h-1zM30 22h2v1h-2zM33 22h1v1h-1zM36 22h1v1h-1zM40 22h1v1h-1zM6 23h8v1h-8zM15 23h1v1h-1zM17 23h2v1h-2zM20 23h4v1h-4zM25 23h1v1h-1zM27 23h1v1h-1zM29 23h1v1h-1zM31 23h1v1h-1zM33 23h4v1h-4zM38 23h1v1h-1zM40 23h2v1h-2zM7 24h1v1h-1zM9 24h1v1h-1zM12 24h1v1h-1zM14 24h1v1h-1zM16 24h9v1h-9zM29 24h1v1h-1zM31 24h1v1h-1zM33 24h1v1h-1zM35 24h1v1h-1zM38 24h1v1h-1zM41 24h1v1h-1zM5 25h5v1h-5zM11 25h2v1h-2zM14 25h1v1h-1zM16 25h1v1h-1zM21 25h1v1h-1zM23 25h6v1h-6zM30 25h1v1h-1zM33 25h3v1h-3zM38 25h1v1h-1zM40 25h2v1h-2zM5 26h4v1h-4zM10 26h1v1h-1zM12 26h1v1h-1zM16 26h2v1h-2zM19 26h5v1h-5zM25 26h2v1h-2zM29 26h5v1h-5zM35 26h1v1h-1zM37 26h1v1h-1zM5 27h2v1h-2zM8 27h1v1h-1zM10 27h3v1h-3zM15 27h1v1h-1zM17 27h3v1h-3zM21 27h1v1h-1zM23 27h1v1h-1zM26 27h2v1h-2zM29 27h2v1h-2zM33 27h2v1h-2zM36 27h1v1h-1zM39 27h3v1h-3zM7 28h2v1h-2zM12 28h1v1h-1zM15 28h2v1h-2zM18 28h1v1h-1zM22 28h1v1h-1zM26 28h1v1h-1zM29 28h1v1h-1zM33 28h3v1h-3zM40 28h2v1h-2zM6 29h1v1h-1zM9 29h1v1h-1zM11 29h1v1h-1zM15 29h1v1h-1zM17 29h2v1h-2zM21 29h2v1h-2zM24 29h3v1h-3zM29 29h2v1h-2zM34 29h2v1h-2zM38 29h1v1h-1zM40 29h2v1h-2zM7 30h1v1h-1zM9 30h1v1h-1zM15 30h3v1h-3zM20 30h1v1h-1zM22 30h1v1h-1zM25 30h2v1h-2zM28 30h1v1h-1zM30 30h3v1h-3zM40 30h1v1h-1zM6 31h6v1h-6zM14 31h4v1h-4zM23 31h3v1h-3zM29 31h2v1h-2zM35 31h7v1h-7zM5 32h1v1h-1zM7 32h1v1h-1zM9 32h2v1h-2zM16 32h2v1h-2zM19 32h2v1h-2zM24 32h8v1h-8zM33 32h1v1h-1zM38 32h2v1h-2zM41 32h1v1h-1zM5 33h1v1h-1zM7 33h1v1h-1zM9 33h1v1h-1zM11 33h1v1h-1zM14 33h2v1h-2zM18 33h2v1h-2zM25 33h2v1h-2zM33 33h1v1h-1zM37 33h1v1h-1zM40 33h1v1h-1zM15 34h3v1h-3zM21 34h1v1h-1zM24 34h1v1h-1zM26 34h1v1h-1zM29 34h2v1h-2zM32 34h2v1h-2zM5 35h7v1h-7zM13 35h1v1h-1zM15 35h1v1h-1zM17 35h1v1h-1zM19 35h1v1h-1zM21 35h1v1h-1zM23 35h1v1h-1zM25 35h1v1h-1zM27 35h1v1h-1zM29 35h1v1h-1zM31 35h1v1h-1zM33 35h1v1h-1zM35 35h7v1h-7zM5 36h1v1h-1zM11 36h1v1h-1zM15 36h2v1h-2zM19 36h2v1h-2zM23 36h2v1h-2zM27 36h7v1h-7zM35 36h1v1h-1zM41 36h1v1h-1zM5 37h1v1h-1zM7 37h3v1h-3zM11 37h1v1h-1zM13 37h1v1h-1zM15 37h3v1h-3zM19 37h1v1h-1zM22 37h2v1h-2zM28 37h1v1h-1zM30 37h3v1h-3zM35 37h1v1h-1zM37 37h3v1h-3zM41 37h1v1h-1zM5 38h1v1h-1zM7 38h3v1h-3zM11 38h1v1h-1zM14 38h2v1h-2zM19 38h1v1h-1zM24 38h2v1h-2zM27 38h1v1h-1zM31 38h1v1h-1zM33 38h1v1h-1zM35 38h1v1h-1zM37 38h3v1h-3zM41 38h1v1h-1zM5 39h1v1h-1zM7 39h3v1h-3zM11 39h1v1h-1zM15 39h1v1h-1zM19 39h1v1h-1zM22 39h1v1h-1zM25 39h1v1h-1zM28 39h1v1h-1zM33 39h1v1h-1zM35 39h1v1h-1zM37 39h3v1h-3zM41 39h1v1h-1zM5 40h1v1h-1zM11 40h1v1h-1zM13 40h1v1h-1zM15 40h1v1h-1zM18 40h1v1h-1zM20 40h1v1h-1zM23 40h4v1h-4zM28 40h2v1h-2zM32 40h2v1h-2zM35 40h1v1h-1zM41 40h1v1h-1zM5 41h7v1h-7zM15 41h2v1h-2zM18 41h1v1h-1zM25 41h4v1h-4zM31 41h2v1h-2zM35 41h7v1h-7z" fill="#000"/>
</svg>